<svg xmlns="http://www.w3.org/2000/svg" xmlns:xlink="http://www.w3.org/1999/xlink" width="500" zoomAndPan="magnify" viewBox="0 0 375 374.999991" height="500" preserveAspectRatio="xMidYMid meet" version="1.0"><defs><clipPath id="4767c00888"><path d="M 0 3.253906 L 372 3.253906 L 372 375 L 0 375 Z M 0 3.253906 " clip-rule="nonzero"/></clipPath></defs><g clip-path="url(#4767c00888)"><path fill="#000000" d="M 371.742188 189.125 C 371.742188 192.167969 371.667969 195.207031 371.519531 198.246094 C 371.367188 201.285156 371.144531 204.316406 370.847656 207.34375 C 370.550781 210.371094 370.175781 213.390625 369.730469 216.398438 C 369.285156 219.410156 368.765625 222.40625 368.171875 225.386719 C 367.578125 228.371094 366.910156 231.339844 366.171875 234.289062 C 365.433594 237.242188 364.621094 240.171875 363.738281 243.082031 C 362.855469 245.992188 361.902344 248.878906 360.875 251.746094 C 359.851562 254.609375 358.757812 257.445312 357.59375 260.257812 C 356.429688 263.066406 355.195312 265.847656 353.898438 268.597656 C 352.597656 271.347656 351.230469 274.0625 349.792969 276.746094 C 348.359375 279.429688 346.863281 282.074219 345.296875 284.683594 C 343.734375 287.292969 342.105469 289.863281 340.417969 292.390625 C 338.726562 294.921875 336.976562 297.40625 335.164062 299.851562 C 333.351562 302.292969 331.480469 304.691406 329.550781 307.042969 C 327.621094 309.394531 325.636719 311.695312 323.59375 313.949219 C 321.550781 316.203125 319.453125 318.40625 317.300781 320.558594 C 315.152344 322.707031 312.949219 324.804688 310.695312 326.847656 C 308.441406 328.890625 306.136719 330.878906 303.785156 332.808594 C 301.433594 334.738281 299.039062 336.609375 296.59375 338.417969 C 294.152344 340.230469 291.664062 341.984375 289.136719 343.671875 C 286.605469 345.363281 284.035156 346.988281 281.429688 348.554688 C 278.820312 350.117188 276.171875 351.617188 273.488281 353.050781 C 270.808594 354.484375 268.089844 355.851562 265.339844 357.152344 C 262.589844 358.453125 259.8125 359.683594 257 360.847656 C 254.191406 362.011719 251.351562 363.109375 248.488281 364.132812 C 245.625 365.15625 242.738281 366.109375 239.828125 366.992188 C 236.914062 367.878906 233.984375 368.6875 231.035156 369.425781 C 228.082031 370.167969 225.117188 370.832031 222.132812 371.425781 C 219.148438 372.019531 216.152344 372.539062 213.144531 372.984375 C 210.136719 373.433594 207.117188 373.804688 204.089844 374.101562 C 201.0625 374.402344 198.03125 374.625 194.992188 374.773438 C 191.953125 374.921875 188.914062 374.996094 185.871094 374.996094 C 182.828125 374.996094 179.789062 374.921875 176.75 374.773438 C 173.710938 374.625 170.679688 374.402344 167.652344 374.101562 C 164.625 373.804688 161.605469 373.433594 158.597656 372.984375 C 155.589844 372.539062 152.59375 372.019531 149.609375 371.425781 C 146.625 370.832031 143.660156 370.167969 140.707031 369.425781 C 137.757812 368.6875 134.828125 367.878906 131.914062 366.992188 C 129.003906 366.109375 126.117188 365.15625 123.253906 364.132812 C 120.390625 363.109375 117.550781 362.011719 114.742188 360.847656 C 111.929688 359.683594 109.152344 358.453125 106.402344 357.152344 C 103.652344 355.851562 100.933594 354.484375 98.253906 353.050781 C 95.570312 351.617188 92.921875 350.117188 90.3125 348.554688 C 87.707031 346.988281 85.136719 345.363281 82.605469 343.671875 C 80.078125 341.984375 77.589844 340.230469 75.148438 338.417969 C 72.703125 336.609375 70.308594 334.738281 67.957031 332.808594 C 65.605469 330.878906 63.300781 328.890625 61.046875 326.847656 C 58.792969 324.804688 56.589844 322.707031 54.441406 320.558594 C 52.289062 318.40625 50.191406 316.203125 48.148438 313.949219 C 46.105469 311.695312 44.121094 309.394531 42.191406 307.042969 C 40.261719 304.691406 38.390625 302.292969 36.578125 299.851562 C 34.765625 297.40625 33.015625 294.921875 31.324219 292.390625 C 29.636719 289.863281 28.007812 287.292969 26.445312 284.683594 C 24.878906 282.074219 23.382812 279.429688 21.949219 276.746094 C 20.511719 274.0625 19.144531 271.347656 17.84375 268.597656 C 16.546875 265.847656 15.3125 263.066406 14.148438 260.257812 C 12.984375 257.445312 11.890625 254.609375 10.867188 251.746094 C 9.839844 248.878906 8.886719 245.992188 8.003906 243.082031 C 7.121094 240.171875 6.308594 237.242188 5.570312 234.289062 C 4.832031 231.339844 4.164062 228.371094 3.570312 225.386719 C 2.976562 222.40625 2.457031 219.410156 2.011719 216.398438 C 1.566406 213.390625 1.191406 210.371094 0.894531 207.34375 C 0.597656 204.316406 0.375 201.285156 0.222656 198.246094 C 0.0742188 195.207031 0 192.167969 0 189.125 C 0 186.085938 0.0742188 183.042969 0.222656 180.007812 C 0.375 176.96875 0.597656 173.933594 0.894531 170.90625 C 1.191406 167.878906 1.566406 164.863281 2.011719 161.855469 C 2.457031 158.84375 2.976562 155.847656 3.570312 152.863281 C 4.164062 149.882812 4.832031 146.914062 5.570312 143.964844 C 6.308594 141.011719 7.121094 138.082031 8.003906 135.171875 C 8.886719 132.261719 9.839844 129.371094 10.867188 126.507812 C 11.890625 123.644531 12.984375 120.808594 14.148438 117.996094 C 15.3125 115.1875 16.546875 112.40625 17.84375 109.65625 C 19.144531 106.90625 20.511719 104.191406 21.949219 101.507812 C 23.382812 98.824219 24.878906 96.179688 26.445312 93.570312 C 28.007812 90.960938 29.636719 88.390625 31.324219 85.863281 C 33.015625 83.332031 34.765625 80.847656 36.578125 78.402344 C 38.390625 75.960938 40.261719 73.5625 42.191406 71.210938 C 44.121094 68.859375 46.105469 66.558594 48.148438 64.304688 C 50.191406 62.050781 52.289062 59.847656 54.441406 57.695312 C 56.589844 55.542969 58.792969 53.449219 61.046875 51.40625 C 63.300781 49.363281 65.605469 47.375 67.957031 45.445312 C 70.308594 43.515625 72.703125 41.644531 75.148438 39.832031 C 77.589844 38.019531 80.078125 36.269531 82.605469 34.582031 C 85.136719 32.890625 87.707031 31.261719 90.3125 29.699219 C 92.921875 28.136719 95.570312 26.636719 98.253906 25.203125 C 100.933594 23.769531 103.652344 22.402344 106.402344 21.101562 C 109.152344 19.800781 111.929688 18.566406 114.742188 17.402344 C 117.550781 16.238281 120.390625 15.144531 123.253906 14.121094 C 126.117188 13.097656 129.003906 12.140625 131.914062 11.257812 C 134.828125 10.375 137.757812 9.566406 140.707031 8.824219 C 143.660156 8.085938 146.625 7.421875 149.609375 6.828125 C 152.59375 6.234375 155.589844 5.714844 158.597656 5.265625 C 161.605469 4.820312 164.625 4.449219 167.652344 4.152344 C 170.679688 3.851562 173.710938 3.628906 176.75 3.480469 C 179.789062 3.328125 182.828125 3.253906 185.871094 3.253906 C 188.914062 3.253906 191.953125 3.328125 194.992188 3.480469 C 198.03125 3.628906 201.0625 3.851562 204.089844 4.152344 C 207.117188 4.449219 210.136719 4.820312 213.144531 5.265625 C 216.152344 5.714844 219.148438 6.234375 222.132812 6.828125 C 225.117188 7.421875 228.082031 8.085938 231.035156 8.824219 C 233.984375 9.566406 236.914062 10.375 239.828125 11.257812 C 242.738281 12.140625 245.625 13.097656 248.488281 14.121094 C 251.351562 15.144531 254.191406 16.238281 257 17.402344 C 259.8125 18.566406 262.589844 19.800781 265.339844 21.101562 C 268.089844 22.402344 270.808594 23.769531 273.488281 25.203125 C 276.171875 26.636719 278.820312 28.136719 281.429688 29.699219 C 284.035156 31.261719 286.605469 32.890625 289.136719 34.582031 C 291.664062 36.269531 294.152344 38.019531 296.59375 39.832031 C 299.039062 41.644531 301.433594 43.515625 303.785156 45.445312 C 306.136719 47.375 308.441406 49.363281 310.695312 51.40625 C 312.949219 53.449219 315.152344 55.542969 317.300781 57.695312 C 319.453125 59.847656 321.550781 62.050781 323.59375 64.304688 C 325.636719 66.558594 327.621094 68.859375 329.550781 71.210938 C 331.480469 73.5625 333.351562 75.960938 335.164062 78.402344 C 336.976562 80.847656 338.726562 83.332031 340.417969 85.863281 C 342.105469 88.390625 343.734375 90.960938 345.296875 93.570312 C 346.863281 96.179688 348.359375 98.824219 349.792969 101.507812 C 351.230469 104.191406 352.597656 106.90625 353.898438 109.65625 C 355.195312 112.40625 356.429688 115.1875 357.59375 117.996094 C 358.757812 120.808594 359.851562 123.644531 360.875 126.507812 C 361.902344 129.371094 362.855469 132.261719 363.738281 135.171875 C 364.621094 138.082031 365.433594 141.011719 366.171875 143.964844 C 366.910156 146.914062 367.578125 149.882812 368.171875 152.863281 C 368.765625 155.847656 369.285156 158.84375 369.730469 161.855469 C 370.175781 164.863281 370.550781 167.878906 370.847656 170.90625 C 371.144531 173.933594 371.367188 176.96875 371.519531 180.007812 C 371.667969 183.042969 371.742188 186.085938 371.742188 189.125 Z M 371.742188 189.125 " fill-opacity="1" fill-rule="nonzero"/></g><path fill="#ffffff" d="M 290.003906 187.261719 C 290.003906 186.515625 290.003906 186.140625 289.628906 185.394531 C 289.628906 184.648438 289.257812 184.273438 289.257812 183.527344 C 289.257812 182.78125 288.882812 182.410156 288.511719 181.660156 C 288.136719 180.914062 288.136719 180.542969 287.765625 179.796875 C 287.390625 179.050781 287.019531 178.675781 286.644531 178.300781 C 286.269531 177.554688 285.898438 177.183594 285.523438 176.4375 C 285.152344 176.0625 285.152344 176.0625 285.152344 175.691406 L 213.863281 95.816406 C 206.398438 87.234375 193.335938 86.859375 185.125 94.324219 C 176.539062 101.789062 176.167969 114.851562 183.632812 123.0625 L 242.230469 189.125 L 183.257812 255.1875 C 175.792969 263.773438 176.539062 276.464844 184.75 283.929688 C 188.484375 287.289062 193.335938 289.152344 198.1875 289.152344 C 203.785156 289.152344 209.386719 286.914062 213.492188 282.433594 L 284.777344 202.9375 C 285.152344 202.5625 285.152344 202.5625 285.152344 202.191406 C 285.523438 201.441406 285.898438 201.070312 286.269531 200.324219 C 286.644531 199.949219 287.019531 199.203125 287.390625 198.832031 C 287.765625 198.085938 288.136719 197.710938 288.136719 196.964844 C 288.511719 196.21875 288.511719 195.84375 288.882812 195.097656 C 288.882812 194.351562 289.257812 193.980469 289.257812 193.230469 C 289.257812 192.484375 289.628906 192.113281 289.628906 191.367188 C 289.628906 190.621094 289.628906 190.246094 289.628906 189.5 C 290.003906 188.378906 290.003906 188.007812 290.003906 187.261719 Z M 290.003906 187.261719 " fill-opacity="1" fill-rule="nonzero"/><path fill="#ffffff" d="M 188.855469 202.191406 C 189.230469 201.441406 189.601562 201.070312 189.976562 200.324219 C 190.351562 199.949219 190.722656 199.203125 191.097656 198.832031 C 191.46875 198.085938 191.84375 197.710938 191.84375 196.964844 C 192.214844 196.21875 192.214844 195.84375 192.589844 195.097656 C 192.589844 194.351562 192.960938 193.980469 192.960938 193.230469 C 192.960938 192.484375 193.335938 192.113281 193.335938 191.367188 C 193.335938 190.621094 193.335938 190.246094 193.335938 189.5 C 193.335938 188.753906 193.335938 188.378906 193.335938 187.632812 C 193.335938 186.886719 193.335938 186.515625 192.960938 185.765625 C 192.960938 185.019531 192.589844 184.648438 192.589844 183.902344 C 192.589844 183.15625 192.214844 182.78125 191.84375 182.035156 C 191.46875 181.289062 191.46875 180.914062 191.097656 180.167969 C 190.722656 179.421875 190.351562 179.050781 189.976562 178.675781 C 189.601562 177.929688 189.230469 177.554688 188.855469 176.808594 C 188.484375 176.4375 188.484375 176.4375 188.484375 176.0625 L 117.195312 95.816406 C 109.730469 87.234375 96.667969 86.859375 88.457031 94.324219 C 79.871094 101.789062 79.5 114.851562 86.964844 123.0625 L 145.933594 189.125 L 86.964844 255.1875 C 79.5 263.773438 80.246094 276.464844 88.457031 283.929688 C 92.1875 287.289062 97.042969 289.152344 101.894531 289.152344 C 107.492188 289.152344 113.089844 286.914062 117.195312 282.433594 L 188.484375 202.9375 C 188.855469 202.5625 188.855469 202.191406 188.855469 202.191406 Z M 188.855469 202.191406 " fill-opacity="1" fill-rule="nonzero"/></svg>