<svg xmlns="http://www.w3.org/2000/svg" xmlns:xlink="http://www.w3.org/1999/xlink" width="500" zoomAndPan="magnify" viewBox="0 0 375 374.999991" height="500" preserveAspectRatio="xMidYMid meet" version="1.0"><defs><clipPath id="0b354eb6d6"><path d="M 165.957031 137.464844 L 215.625 137.464844 L 215.625 223.21875 L 165.957031 223.21875 Z M 165.957031 137.464844 " clip-rule="nonzero"/></clipPath><clipPath id="83121ed204"><path d="M 165.957031 137.464844 L 190.792969 137.464844 L 215.625 180.261719 L 190.792969 223.0625 L 165.957031 223.0625 L 190.792969 180.261719 Z M 165.957031 137.464844 " clip-rule="nonzero"/></clipPath><clipPath id="1594ada54c"><path d="M 230.457031 137.464844 L 280.125 137.464844 L 280.125 223.21875 L 230.457031 223.21875 Z M 230.457031 137.464844 " clip-rule="nonzero"/></clipPath><clipPath id="9585ba5007"><path d="M 230.457031 137.464844 L 255.292969 137.464844 L 280.125 180.261719 L 255.292969 223.0625 L 230.457031 223.0625 L 255.292969 180.261719 Z M 230.457031 137.464844 " clip-rule="nonzero"/></clipPath><clipPath id="ec92848843"><path d="M 101.742188 137.464844 L 151.410156 137.464844 L 151.410156 223.21875 L 101.742188 223.21875 Z M 101.742188 137.464844 " clip-rule="nonzero"/></clipPath><clipPath id="a0c30d7bf9"><path d="M 101.742188 137.464844 L 126.578125 137.464844 L 151.410156 180.261719 L 126.578125 223.0625 L 101.742188 223.0625 L 126.578125 180.261719 Z M 101.742188 137.464844 " clip-rule="nonzero"/></clipPath></defs><rect x="-37.5" width="450" fill="#ffffff" y="-37.499999" height="449.999989" fill-opacity="1"/><rect x="-37.5" width="450" fill="#000000" y="-37.499999" height="449.999989" fill-opacity="1"/><g clip-path="url(#0b354eb6d6)"><g clip-path="url(#83121ed204)"><path fill="#ffffff" d="M 165.957031 137.464844 L 215.625 137.464844 L 215.625 223.023438 L 165.957031 223.023438 Z M 165.957031 137.464844 " fill-opacity="1" fill-rule="nonzero"/></g></g><g clip-path="url(#1594ada54c)"><g clip-path="url(#9585ba5007)"><path fill="#ffffff" d="M 230.457031 137.464844 L 280.125 137.464844 L 280.125 223.023438 L 230.457031 223.023438 Z M 230.457031 137.464844 " fill-opacity="1" fill-rule="nonzero"/></g></g><g clip-path="url(#ec92848843)"><g clip-path="url(#a0c30d7bf9)"><path fill="#ffffff" d="M 101.742188 137.464844 L 151.410156 137.464844 L 151.410156 223.023438 L 101.742188 223.023438 Z M 101.742188 137.464844 " fill-opacity="1" fill-rule="nonzero"/></g></g></svg>