<svg xmlns="http://www.w3.org/2000/svg" xmlns:xlink="http://www.w3.org/1999/xlink" width="500" zoomAndPan="magnify" viewBox="0 0 375 374.999991" height="500" preserveAspectRatio="xMidYMid meet" version="1.0"><defs><filter x="0%" y="0%" width="100%" height="100%" id="b4282c5fe2"><feColorMatrix values="0 0 0 0 1 0 0 0 0 1 0 0 0 0 1 0 0 0 1 0" color-interpolation-filters="sRGB"/></filter><clipPath id="405731dd4e"><path d="M 131 29 L 360.457031 29 L 360.457031 360.457031 L 131 360.457031 Z M 131 29 " clip-rule="nonzero"/></clipPath><clipPath id="ff08dc86d7"><path d="M 14.707031 14.707031 L 244 14.707031 L 244 346 L 14.707031 346 Z M 14.707031 14.707031 " clip-rule="nonzero"/></clipPath><mask id="fc95139507"><g filter="url(#b4282c5fe2)"><rect x="-37.5" width="450" fill="#000000" y="-37.499999" height="449.999989" fill-opacity="0.24"/></g></mask><clipPath id="7d47d3592d"><path d="M 0.800781 1.234375 L 256.402344 1.234375 L 256.402344 260.734375 L 0.800781 260.734375 Z M 0.800781 1.234375 " clip-rule="nonzero"/></clipPath><clipPath id="0a430a4871"><rect x="0" width="257" y="0" height="262"/></clipPath></defs><rect x="-37.5" width="450" fill="#ffffff" y="-37.499999" height="449.999989" fill-opacity="1"/><rect x="-37.5" width="450" fill="#000000" y="-37.499999" height="449.999989" fill-opacity="1"/><g clip-path="url(#405731dd4e)"><path fill="#ffffff" d="M 346.71875 120.25 C 338.015625 99.671875 325.558594 81.195312 309.691406 65.328125 C 303.742188 59.378906 297.425781 53.910156 290.773438 48.941406 C 285.964844 45.347656 280.976562 42.015625 275.824219 38.949219 C 270.164062 35.578125 264.300781 32.53125 258.246094 29.816406 L 258.246094 179.078125 L 210.519531 179.078125 L 210.519531 137.492188 L 192.9375 137.492188 L 192.9375 237.527344 L 210.519531 237.527344 L 210.519531 195.371094 L 258.246094 195.371094 L 258.246094 237.527344 L 275.824219 237.527344 L 275.824219 56.75 C 281.039062 60.277344 286.027344 64.113281 290.773438 68.226562 C 324.183594 97.1875 345.351562 139.921875 345.351562 187.511719 C 345.351562 274.542969 274.542969 345.351562 187.511719 345.351562 C 167.878906 345.351562 149.070312 341.75 131.71875 335.167969 L 131.71875 351.09375 C 149.613281 357.207031 168.328125 360.300781 187.511719 360.300781 C 210.832031 360.300781 233.464844 355.730469 254.769531 346.71875 C 275.347656 338.015625 293.824219 325.558594 309.691406 309.691406 C 325.558594 293.824219 338.015625 275.347656 346.71875 254.769531 C 355.730469 233.464844 360.300781 210.832031 360.300781 187.511719 C 360.300781 164.1875 355.730469 141.554688 346.71875 120.25 Z M 346.71875 120.25 " fill-opacity="1" fill-rule="nonzero"/></g><g clip-path="url(#ff08dc86d7)"><path fill="#ffffff" d="M 167.21875 180.792969 L 116.773438 180.792969 L 116.773438 153.5 L 173.648438 153.5 L 173.648438 137.492188 L 99.195312 137.492188 L 99.195312 318.269531 C 93.980469 314.742188 88.992188 310.90625 84.246094 306.792969 C 50.835938 277.832031 29.667969 235.097656 29.667969 187.511719 C 29.667969 100.476562 100.476562 29.667969 187.511719 29.667969 C 207.140625 29.667969 225.949219 33.269531 243.300781 39.851562 L 243.300781 23.925781 C 225.40625 17.8125 206.691406 14.71875 187.511719 14.71875 C 164.1875 14.71875 141.554688 19.289062 120.25 28.300781 C 99.671875 37.003906 81.195312 49.460938 65.328125 65.328125 C 49.460938 81.195312 37.003906 99.671875 28.300781 120.25 C 19.289062 141.554688 14.71875 164.1875 14.71875 187.507812 C 14.71875 210.832031 19.289062 233.464844 28.300781 254.769531 C 37.003906 275.347656 49.460938 293.824219 65.328125 309.691406 C 71.277344 315.640625 77.59375 321.109375 84.246094 326.078125 C 89.054688 329.671875 94.042969 333.003906 99.195312 336.070312 C 104.855469 339.441406 110.71875 342.488281 116.773438 345.203125 L 116.773438 196.796875 L 167.21875 196.796875 Z M 167.21875 180.792969 " fill-opacity="1" fill-rule="nonzero"/></g><g mask="url(#fc95139507)"><g transform="matrix(1, 0, 0, 1, 52, 50)"><g clip-path="url(#0a430a4871)"><g clip-path="url(#7d47d3592d)"><path fill="#ffffff" d="M 109.515625 50.859375 C 112.515625 54.035156 115.515625 57.210938 118.519531 60.386719 C 118.902344 60.792969 119.300781 61.226562 119.410156 61.773438 C 119.507812 62.277344 119.347656 62.792969 119.355469 63.304688 C 119.375 64.460938 120.234375 65.410156 121.042969 66.242188 C 122.050781 67.28125 123.058594 68.316406 124.070312 69.355469 C 124.710938 70.011719 125.375 70.710938 125.632812 71.59375 C 125.984375 72.785156 125.523438 74.070312 125.671875 75.308594 C 125.777344 76.164062 126.164062 76.953125 126.53125 77.734375 C 128.671875 82.273438 130.285156 87.058594 131.328125 91.964844 C 131.574219 93.136719 131.769531 94.4375 131.140625 95.457031 C 130.578125 96.363281 129.507812 96.796875 128.652344 97.4375 C 127.800781 98.082031 127.117188 99.300781 127.722656 100.183594 C 127.988281 100.578125 128.445312 100.792969 128.886719 100.976562 C 133.539062 102.933594 138.613281 103.601562 143.617188 104.25 C 144.507812 104.367188 145.402344 104.480469 146.292969 104.378906 C 147.851562 104.203125 149.320312 103.320312 150.210938 102.027344 C 153.875 96.703125 159.101562 92.621094 165.433594 91.328125 C 173.371094 89.707031 181.753906 92.621094 189.648438 90.78125 C 192.976562 86.683594 197.535156 83.121094 202.5 81.320312 C 205.96875 80.058594 209.851562 79.476562 213.335938 80.695312 C 214.183594 80.992188 215.015625 81.394531 215.914062 81.441406 C 216.980469 81.492188 217.996094 81.035156 218.964844 80.589844 C 220.066406 80.078125 221.167969 79.570312 222.269531 79.0625 C 220.847656 72.234375 219.363281 64.808594 219.597656 57.835938 C 219.660156 56.070312 219.820312 54.300781 219.746094 52.53125 C 219.703125 51.554688 219.589844 50.585938 219.449219 49.617188 C 218.859375 45.511719 217.816406 41.46875 216.355469 37.585938 C 214.738281 33.300781 212.613281 29.222656 210.492188 25.160156 C 210 24.21875 208.347656 24.054688 207.289062 24.113281 C 206.226562 24.171875 205.195312 24.472656 204.136719 24.566406 C 199.980469 24.929688 196.191406 22.085938 192.039062 21.730469 C 190.1875 21.574219 188.332031 21.917969 186.503906 22.246094 C 186.101562 22.320312 185.675781 22.390625 185.296875 22.238281 C 184.875 22.070312 184.597656 21.664062 184.367188 21.273438 C 183.898438 20.484375 183.488281 19.660156 183.148438 18.804688 C 182.929688 18.253906 182.75 17.582031 183.105469 17.105469 C 183.28125 16.875 183.554688 16.734375 183.726562 16.507812 C 184.1875 15.902344 183.773438 15.03125 183.894531 14.28125 C 183.96875 13.828125 184.234375 13.4375 184.488281 13.054688 C 185.957031 10.832031 187.125 8.414062 187.957031 5.882812 C 188.304688 4.816406 188.613281 3.695312 189.347656 2.851562 C 190.488281 1.542969 192.386719 1.199219 194.121094 1.234375 C 197.710938 1.300781 201.261719 2.648438 203.992188 4.980469 C 204.722656 5.609375 205.398438 6.300781 206.125 6.9375 C 206.75 7.480469 207.414062 7.984375 208.078125 8.484375 C 209.652344 9.671875 211.222656 10.859375 212.796875 12.046875 C 213.996094 12.949219 215.191406 13.855469 216.390625 14.757812 C 217.90625 15.902344 219.429688 17.050781 221.089844 17.980469 C 224.039062 19.628906 224.632812 23.210938 226.339844 26.125 C 227.378906 27.902344 228.652344 29.125 229.855469 30.796875 C 232.085938 33.898438 234.316406 37 236.542969 40.101562 C 238.023438 42.160156 239.503906 44.21875 240.90625 46.332031 C 248.433594 57.695312 253.59375 70.625 255.960938 84.046875 C 256.25 85.675781 255.433594 87.265625 254.511719 88.636719 C 253.582031 90.015625 252.324219 91.132812 251.109375 92.265625 C 244.914062 98.03125 239.449219 104.539062 233.285156 110.332031 C 227.117188 116.128906 220.074219 121.289062 211.9375 123.609375 C 204.660156 125.683594 196.507812 125.523438 190.253906 129.78125 C 182.050781 135.367188 184.867188 148.726562 181.175781 157.941406 C 179.546875 162.007812 177.28125 165.820312 175.988281 170.007812 C 173.453125 178.203125 171.714844 186.710938 168.128906 194.503906 C 166.808594 197.371094 165.292969 200.175781 164.449219 203.21875 C 162.789062 209.191406 163.839844 215.566406 165.347656 221.578125 C 166.851562 227.589844 168.816406 233.574219 168.964844 239.769531 C 169.140625 246.976562 172.929688 253.738281 174.914062 260.671875 L 80.894531 260.671875 C 82.519531 255.667969 84.300781 251.164062 86.453125 246.363281 C 87.089844 244.953125 87.75 243.535156 88.0625 242.019531 C 88.351562 240.59375 88.328125 239.125 88.421875 237.671875 C 88.917969 230.0625 92.753906 222.753906 91.964844 215.167969 C 91.671875 212.371094 92.132812 209.601562 91.207031 206.945312 C 90.277344 204.289062 88.875 201.832031 87.472656 199.390625 C 83.972656 193.300781 80.421875 187.191406 75.921875 181.796875 C 74.726562 183.382812 73.332031 184.988281 72.136719 186.578125 C 70.933594 188.175781 69.726562 189.773438 68.453125 191.316406 C 63.308594 197.535156 56.972656 202.824219 49.710938 206.339844 C 45.53125 208.363281 41.050781 209.800781 37.089844 212.226562 C 35.203125 213.375 33.4375 214.75 31.402344 215.609375 C 29.101562 216.578125 26.566406 216.839844 24.074219 216.917969 C 20.152344 217.035156 16.027344 216.65625 12.757812 214.492188 C 11.472656 213.636719 10.917969 212.089844 10.226562 210.710938 C 9.316406 208.910156 8.410156 207.105469 7.503906 205.304688 C 6.660156 203.621094 5.8125 201.9375 5.105469 200.191406 C 3.027344 195.027344 2.246094 189.441406 1.710938 183.902344 C 1.28125 179.410156 0.996094 174.902344 0.867188 170.390625 C 0.699219 164.667969 3.125 158.878906 3.582031 153.171875 C 3.949219 148.582031 3.234375 143.835938 4.625 139.445312 C 5.730469 135.957031 7.074219 132.242188 8.929688 129.085938 C 12.820312 122.476562 16.710938 115.863281 20.601562 109.253906 C 20.878906 108.78125 21.164062 108.296875 21.585938 107.945312 C 22.472656 107.207031 23.78125 107.199219 24.875 107.5625 C 25.96875 107.925781 26.929688 108.601562 27.953125 109.136719 C 30.496094 110.472656 33.441406 110.960938 35.894531 112.460938 C 36.289062 112.699219 36.679688 112.976562 36.898438 113.382812 C 37.132812 113.8125 37.144531 114.328125 37.273438 114.800781 C 37.550781 115.816406 38.347656 116.582031 38.964844 117.433594 C 39.582031 118.285156 40.042969 119.433594 39.546875 120.363281 C 39.34375 120.742188 39.007812 121.027344 38.671875 121.296875 C 37.140625 122.507812 35.410156 123.53125 34.238281 125.09375 C 33.617188 125.925781 33.175781 126.875 32.582031 127.726562 C 29.476562 132.144531 22.742188 133.101562 20.183594 137.855469 C 19.210938 139.660156 19 141.773438 18.96875 143.824219 C 18.898438 148.011719 19.484375 152.207031 20.699219 156.214844 C 21.613281 159.242188 23.601562 161.558594 25.246094 164.257812 C 26.035156 165.558594 26.851562 166.84375 27.789062 168.042969 C 28.511719 168.964844 29.304688 169.832031 29.945312 170.816406 C 30.742188 172.054688 31.277344 173.441406 31.789062 174.820312 C 32.757812 172.964844 33.277344 170.84375 33.925781 168.855469 C 34.886719 165.898438 36.832031 163.335938 39.117188 161.230469 C 41.40625 159.125 44.035156 157.429688 46.664062 155.765625 C 46.539062 151.648438 48.515625 147.789062 50.359375 144.105469 C 51.511719 141.804688 52.773438 139.550781 54.300781 137.480469 C 60.941406 128.476562 72.796875 123.636719 83.84375 125.421875 C 84.746094 125.566406 85.808594 125.113281 86.460938 124.472656 C 88.945312 122.019531 91.429688 119.566406 93.914062 117.113281 C 94.726562 116.308594 95.550781 115.496094 96.132812 114.511719 C 97.371094 112.425781 97.378906 109.789062 96.691406 107.460938 C 96.003906 105.136719 94.691406 103.050781 93.367188 101.015625 C 92.496094 99.671875 91.585938 98.308594 90.316406 97.335938 C 89.480469 96.695312 88.515625 96.246094 87.609375 95.703125 C 84.097656 93.613281 81.410156 90.140625 77.554688 88.773438 C 72.324219 86.917969 68.300781 81.785156 66.375 76.578125 C 65.605469 74.503906 65.300781 72.257812 65.484375 70.054688 C 65.613281 68.523438 65.976562 67.019531 66.335938 65.523438 C 66.84375 63.421875 67.351562 61.316406 67.855469 59.214844 C 68.050781 58.414062 68.246094 57.601562 68.609375 56.859375 C 69.351562 55.328125 70.71875 54.214844 72.050781 53.15625 C 74.976562 50.835938 77.945312 48.535156 81.21875 46.734375 C 84.488281 44.929688 88.101562 43.632812 91.832031 43.457031 C 93.660156 43.371094 95.488281 43.554688 97.300781 43.808594 C 99.609375 44.132812 101.933594 44.585938 104.046875 45.570312 C 106.160156 46.558594 107.914062 49.164062 109.515625 50.859375 Z M 109.515625 50.859375 " fill-opacity="1" fill-rule="nonzero"/></g></g></g></g></svg>